<svg width="100" height="100" viewBox="0 0 100 100" fill="none" xmlns="http://www.w3.org/2000/svg">
<g clip-path="url(#clip0_856_56)">
<path d="M49.7351 29.4533C37.3894 29.4533 27.1602 39.5062 27.1602 52.0282C27.1602 64.5503 37.2131 74.6032 49.7351 74.6032C62.2572 74.6032 72.3101 64.3739 72.3101 52.0282C72.3101 39.6825 62.0808 29.4533 49.7351 29.4533ZM49.7351 66.4903C41.7986 66.4903 35.273 59.9647 35.273 52.0282C35.273 44.0917 41.7986 37.5661 49.7351 37.5661C57.6716 37.5661 64.1972 44.0917 64.1972 52.0282C64.1972 59.9647 57.6716 66.4903 49.7351 66.4903Z" fill="white"/>
<path d="M73.1928 34.0388C76.0175 34.0388 78.3074 31.7489 78.3074 28.9242C78.3074 26.0994 76.0175 23.8095 73.1928 23.8095C70.368 23.8095 68.0781 26.0994 68.0781 28.9242C68.0781 31.7489 70.368 34.0388 73.1928 34.0388Z" fill="white"/>
<path d="M86.4194 15.6966C81.8338 10.9347 75.3083 8.46561 67.9009 8.46561H31.5693C16.2254 8.46561 5.99609 18.6949 5.99609 34.0388V70.194C5.99609 77.7778 8.46523 84.3034 13.4035 89.0653C18.1654 93.6508 24.5146 95.9436 31.7457 95.9436H67.7245C75.3083 95.9436 81.6575 93.4744 86.243 89.0653C91.0049 84.4797 93.474 77.9541 93.474 70.3704V34.0388C93.474 26.6314 91.0049 20.2822 86.4194 15.6966ZM85.7139 70.3704C85.7139 75.8377 83.7739 80.2469 80.5993 83.2452C77.4247 86.2434 73.0155 87.8307 67.7245 87.8307H31.7457C26.4546 87.8307 22.0455 86.2434 18.8709 83.2452C15.6963 80.0705 14.109 75.6614 14.109 70.194V34.0388C14.109 28.7478 15.6963 24.3386 18.8709 21.164C21.8691 18.1658 26.4546 16.5785 31.7457 16.5785H68.0772C73.3682 16.5785 77.7774 18.1658 80.952 21.3404C83.9502 24.515 85.7139 28.9242 85.7139 34.0388V70.3704Z" fill="white"/>
</g>
<defs>
<clipPath id="clip0_856_56">
<rect width="100" height="100" fill="white"/>
</clipPath>
</defs>
</svg>
