<svg width="100" height="100" viewBox="0 0 100 100" fill="none" xmlns="http://www.w3.org/2000/svg">
<path d="M80.0795 10.52H19.9195C14.7307 10.52 10.5195 14.7312 10.5195 19.92V80.08C10.5195 85.2688 14.7307 89.48 19.9195 89.48H80.0795C85.2683 89.48 89.4795 85.2688 89.4795 80.08V19.92C89.4795 14.7312 85.2683 10.52 80.0795 10.52ZM34.9595 40.6V76.32H23.6795V40.6H34.9595ZM23.6795 30.2036C23.6795 27.5716 25.9355 25.56 29.3195 25.56C32.7035 25.56 34.8279 27.5716 34.9595 30.2036C34.9595 32.8356 32.8539 34.96 29.3195 34.96C25.9355 34.96 23.6795 32.8356 23.6795 30.2036ZM76.3195 76.32H65.0395C65.0395 76.32 65.0395 58.9112 65.0395 57.52C65.0395 53.76 63.1595 50 58.4595 49.9248H58.3091C53.7595 49.9248 51.8795 53.7976 51.8795 57.52C51.8795 59.2308 51.8795 76.32 51.8795 76.32H40.5995V40.6H51.8795V45.4128C51.8795 45.4128 55.5079 40.6 62.8023 40.6C70.2659 40.6 76.3195 45.7324 76.3195 56.1288V76.32Z" fill="white"/>
</svg>
