<svg width="2931" height="1475" viewBox="0 0 2931 1475" fill="none" xmlns="http://www.w3.org/2000/svg">
<g filter="url(#filter0_d_1384_186)">
<path d="M1062.94 1306.84C1037.15 1306.84 1016.25 1301.28 1000.25 1290.17C984.24 1279.05 974.013 1263.71 969.567 1244.15C965.565 1224.14 968.01 1201.46 976.903 1176.12L1023.59 1040.72C1029.37 1023.83 1030.26 1010.49 1026.26 1000.7C1022.7 990.923 1014.92 986.032 1002.91 986.032C993.133 986.032 984.017 989.366 975.569 996.036C967.121 1002.71 959.118 1013.38 951.559 1028.05L939.553 1050.06H913.542L928.215 1022.05C942.888 994.924 960.452 974.916 980.905 962.021C1001.36 948.682 1025.59 942.012 1053.6 942.012C1079.39 942.012 1100.07 947.57 1115.63 958.686C1131.64 969.802 1141.86 985.142 1146.31 1004.71C1150.76 1024.27 1148.31 1046.95 1138.97 1072.74L1092.29 1208.13C1086.51 1224.58 1085.62 1237.92 1089.62 1248.15C1093.62 1257.93 1101.62 1262.82 1113.63 1262.82C1132.75 1262.82 1149.87 1248.81 1164.99 1220.8L1176.99 1198.79H1203L1187.66 1226.8C1173.43 1253.93 1155.87 1274.16 1134.97 1287.5C1114.52 1300.39 1090.51 1306.84 1062.94 1306.84ZM1106.96 893.324C1087.84 893.324 1072.5 888.433 1060.94 878.651C1049.38 868.424 1043.6 854.863 1043.6 837.966C1043.6 819.292 1050.49 803.951 1064.27 791.946C1078.5 779.496 1096.07 773.271 1116.96 773.271C1135.64 773.271 1150.76 778.385 1162.32 788.611C1173.88 798.393 1179.66 811.51 1179.66 827.962C1179.66 847.082 1172.54 862.866 1158.32 875.316C1144.53 887.322 1127.41 893.324 1106.96 893.324ZM1368.68 1306.84C1335.78 1306.84 1309.99 1298.39 1291.32 1281.49C1272.64 1264.15 1263.31 1240.37 1263.31 1210.13C1263.31 1194.12 1266.2 1177.67 1271.98 1160.78C1277.76 1143.88 1286.65 1126.09 1298.65 1107.42C1311.1 1088.74 1327.11 1068.51 1346.68 1046.72C1366.68 1024.49 1390.69 1000.26 1418.71 974.026C1408.92 976.694 1399.37 978.695 1390.03 980.029C1380.69 980.918 1372.24 981.363 1364.68 981.363C1355.35 981.363 1346.9 980.474 1339.34 978.695C1332.22 976.472 1326 974.249 1320.66 972.025C1315.33 969.358 1310.66 968.024 1306.66 968.024C1302.66 968.024 1299.54 969.135 1297.32 971.358C1295.1 973.582 1293.99 976.472 1293.99 980.029C1293.99 984.031 1295.32 988.922 1297.99 994.702C1300.66 1000.04 1303.1 1005.82 1305.32 1012.04C1307.99 1017.82 1309.33 1023.83 1309.33 1030.05C1309.33 1040.28 1305.77 1048.73 1298.65 1055.4C1291.54 1062.07 1282.42 1065.4 1271.31 1065.4C1261.08 1065.4 1252.86 1061.84 1246.63 1054.73C1240.85 1047.61 1237.96 1037.83 1237.96 1025.38C1237.96 1008.04 1242.63 993.368 1251.97 981.363C1261.75 968.913 1275.09 959.353 1291.98 952.684C1308.88 945.569 1328.89 942.012 1352.01 942.012C1364.02 942.012 1376.24 943.346 1388.69 946.014C1401.59 948.237 1415.59 951.794 1430.71 956.685L1441.38 936.01L1458.72 946.014C1444.94 974.026 1433.16 1001.59 1423.38 1028.72C1414.04 1055.84 1406.7 1081.18 1401.37 1104.75C1396.03 1127.87 1393.36 1148.33 1393.36 1166.11C1393.36 1188.79 1398.03 1206.57 1407.37 1219.47C1417.15 1231.92 1430.71 1238.14 1448.05 1238.14C1461.84 1238.14 1475.62 1234.36 1489.4 1226.8C1503.63 1219.25 1516.31 1209.24 1527.42 1196.79C1538.98 1183.9 1548.1 1169.89 1554.77 1154.77C1561.88 1139.65 1565.44 1124.31 1565.44 1108.75C1565.44 1093.63 1562.1 1080.74 1555.43 1070.07C1549.21 1059.4 1541.87 1049.84 1533.42 1041.39C1525.42 1032.94 1518.08 1024.27 1511.41 1015.38C1505.19 1006.49 1502.08 996.258 1502.08 984.698C1502.08 971.803 1506.3 961.576 1514.75 954.018C1523.2 946.014 1534.31 942.012 1548.1 942.012C1567.22 942.012 1581.67 949.571 1591.45 964.689C1601.23 979.362 1606.12 1001.82 1606.12 1032.05C1606.12 1068.07 1599.68 1102.53 1586.78 1135.43C1573.89 1168.33 1556.1 1197.68 1533.42 1223.47C1511.19 1249.26 1485.85 1269.71 1457.39 1284.83C1428.93 1299.5 1399.37 1306.84 1368.68 1306.84ZM1645.37 1456.91C1626.25 1456.91 1610.91 1452.24 1599.35 1442.9C1587.79 1434.01 1582.01 1422.45 1582.01 1408.22C1582.01 1395.32 1586.46 1384.65 1595.35 1376.2C1604.25 1368.2 1615.58 1364.2 1629.37 1364.2C1639.15 1364.2 1648.04 1365.98 1656.05 1369.53C1664.05 1373.09 1671.39 1377.31 1678.06 1382.21C1684.73 1387.1 1691.39 1391.32 1698.06 1394.88C1704.73 1398.44 1711.63 1400.21 1718.74 1400.21C1730.75 1400.21 1745.2 1394.88 1762.09 1384.21C1779.43 1373.54 1797.44 1359.08 1816.12 1340.85C1834.79 1323.07 1853.24 1303.28 1871.47 1281.49C1889.7 1259.71 1906.16 1237.48 1920.83 1214.8C1935.5 1192.12 1947.28 1170.78 1956.18 1150.77C1965.07 1130.32 1969.52 1112.98 1969.52 1098.75C1969.52 1085.85 1966.63 1074.74 1960.85 1065.4C1955.51 1056.06 1949.06 1047.39 1941.5 1039.39C1934.39 1031.38 1927.94 1023.16 1922.16 1014.71C1916.83 1006.26 1914.16 996.258 1914.16 984.698C1914.16 972.248 1918.61 962.021 1927.5 954.018C1936.39 946.014 1947.73 942.012 1961.51 942.012C1979.74 942.012 1993.75 948.682 2003.53 962.021C2013.76 975.36 2018.87 994.035 2018.87 1018.05C2018.87 1045.17 2012.87 1074.74 2000.86 1106.75C1989.3 1138.32 1973.3 1170.56 1952.84 1203.46C1932.39 1236.36 1909.27 1267.71 1883.48 1297.5C1858.13 1327.74 1831.46 1354.86 1803.44 1378.87C1775.43 1402.88 1747.86 1421.78 1720.74 1435.56C1693.62 1449.79 1668.5 1456.91 1645.37 1456.91ZM1775.43 1387.54C1778.54 1354.64 1779.88 1320.18 1779.43 1284.16C1778.99 1248.15 1776.99 1213.46 1773.43 1180.12C1769.87 1146.32 1764.76 1116.09 1758.09 1089.41C1751.87 1062.29 1744.75 1040.94 1736.75 1025.38C1728.74 1009.38 1720.3 1001.37 1711.4 1001.37C1706.07 1001.37 1700.73 1003.59 1695.4 1008.04C1690.51 1012.04 1685.17 1019.38 1679.39 1030.05L1668.05 1050.06H1642.04L1662.72 1010.71C1674.72 987.588 1689.17 970.469 1706.07 959.353C1723.41 947.793 1743.2 942.012 1765.43 942.012C1794.77 942.012 1819.01 952.684 1838.13 974.026C1857.25 995.369 1871.47 1029.61 1880.81 1076.74C1890.59 1123.87 1896.37 1186.34 1898.15 1264.15C1886.59 1278.83 1874.59 1293.06 1862.14 1306.84C1850.13 1320.62 1837.01 1334.18 1822.79 1347.52C1809 1360.86 1793.22 1374.2 1775.43 1387.54Z" fill="#EDE8E0"/>
<path d="M158.867 782.556C127.742 782.556 100.175 778.554 76.1641 770.551C52.5982 762.547 34.1456 751.431 20.8064 737.203C7.91188 722.974 1.4646 706.523 1.4646 687.848C1.4646 670.062 7.0226 655.611 18.1386 644.495C29.2546 633.379 43.4831 627.821 60.824 627.821C75.4972 627.821 86.8355 631.823 94.839 639.827C103.287 647.386 107.511 658.279 107.511 672.508C107.511 683.624 105.51 694.517 101.509 705.189C97.5068 715.86 95.506 724.531 95.506 731.2C95.506 739.648 99.9524 746.096 108.845 750.542C118.183 754.544 131.299 756.545 148.196 756.545C169.094 756.545 185.101 752.988 196.217 745.873C207.778 738.315 213.558 727.643 213.558 713.859C213.558 702.743 210.001 692.739 202.887 683.846C195.772 674.509 186.435 665.394 174.874 656.501C163.758 647.608 151.753 638.715 138.858 629.822C126.408 620.93 114.403 611.37 102.843 601.143C91.7265 590.472 82.6114 578.911 75.4972 566.461C68.3829 554.011 64.8258 540.005 64.8258 524.443C64.8258 491.539 79.4989 465.528 108.845 446.408C138.191 427.289 175.986 417.729 222.228 417.729C251.575 417.729 277.141 421.508 298.929 429.067C321.161 436.182 338.502 446.408 350.952 459.748C363.846 472.642 370.294 487.538 370.294 504.434C370.294 519.996 365.18 532.891 354.953 543.118C345.171 553.344 332.054 558.458 315.603 558.458C303.153 558.458 292.926 555.123 284.923 548.453C277.364 541.339 273.584 532.224 273.584 521.108C273.584 511.77 275.363 501.988 278.92 491.762C282.477 481.535 284.256 473.309 284.256 467.084C284.256 459.525 280.032 453.745 271.583 449.743C263.58 445.741 252.242 443.74 237.568 443.74C218.894 443.74 204.22 447.298 193.549 454.412C183.322 461.526 178.209 471.53 178.209 484.425C178.209 495.096 181.766 505.101 188.88 514.438C195.995 523.776 205.11 532.891 216.226 541.784C227.786 550.232 239.792 559.125 252.242 568.462C265.136 577.355 277.141 587.137 288.257 597.808C299.818 608.035 309.156 619.373 316.27 631.823C323.384 644.273 326.941 658.279 326.941 673.842C326.941 696.074 319.827 715.416 305.598 731.867C291.37 747.874 271.583 760.324 246.239 769.217C220.894 778.11 191.771 782.556 158.867 782.556ZM546.152 782.556C520.363 782.556 499.465 776.998 483.458 765.882C467.451 754.766 457.224 739.426 452.778 719.862C448.776 699.853 451.222 677.176 460.114 651.832L506.802 516.439C512.582 499.543 513.471 486.204 509.469 476.422C505.912 466.639 498.131 461.748 486.126 461.748C476.344 461.748 467.229 465.083 458.78 471.753C450.332 478.422 442.329 489.094 434.77 503.767L422.765 525.777H396.753L411.426 497.764C426.099 470.641 443.663 450.632 464.116 437.738C484.57 424.399 508.802 417.729 536.815 417.729C562.604 417.729 583.28 423.287 598.842 434.403C614.849 445.519 625.076 460.859 629.522 480.423C633.969 499.987 631.523 522.664 622.186 548.453L575.498 683.846C569.718 700.298 568.829 713.637 572.831 723.864C576.832 733.646 584.836 738.537 596.841 738.537C615.961 738.537 633.079 724.531 648.197 696.518L660.202 674.509H686.214L670.874 702.521C656.645 729.644 639.082 749.875 618.184 763.214C597.73 776.109 573.72 782.556 546.152 782.556ZM590.172 369.041C571.052 369.041 555.712 364.15 544.151 354.368C532.591 344.141 526.81 330.58 526.81 313.683C526.81 295.008 533.702 279.668 547.486 267.663C561.715 255.213 579.278 248.988 600.176 248.988C618.851 248.988 633.969 254.101 645.529 264.328C657.09 274.11 662.87 287.227 662.87 303.679C662.87 322.798 655.756 338.583 641.527 351.033C627.744 363.038 610.625 369.041 590.172 369.041ZM976.024 782.556C944.899 782.556 920.444 774.108 902.658 757.212C884.872 740.315 873.312 714.971 867.976 681.178L842.632 505.101C839.964 489.983 836.184 479.312 831.293 473.087C826.402 466.417 819.288 463.082 809.951 463.082C801.058 463.082 793.277 465.972 786.607 471.753C779.937 477.533 773.268 486.871 766.598 499.765L752.592 525.777H726.581L746.589 487.093C759.484 462.638 774.602 445.074 791.943 434.403C809.728 423.287 830.849 417.729 855.304 417.729C885.095 417.729 908.438 425.955 925.335 442.407C942.231 458.414 953.347 483.536 958.683 517.773L986.028 694.517C988.251 708.746 992.031 719.417 997.366 726.532C1002.7 733.646 1009.82 737.203 1018.71 737.203C1027.16 737.203 1034.72 734.535 1041.39 729.199C1048.06 723.419 1054.95 713.859 1062.06 700.52L1076.07 674.509H1102.08L1081.4 713.192C1068.06 738.092 1053.39 755.878 1037.38 766.549C1021.38 777.221 1000.92 782.556 976.024 782.556ZM749.257 782.556C729.693 782.556 713.908 777.887 701.903 768.55C690.342 758.768 684.562 746.096 684.562 730.533C684.562 717.639 688.564 707.19 696.567 699.186C704.571 690.738 714.575 686.514 726.581 686.514C735.029 686.514 741.921 688.515 747.256 692.517C753.037 696.518 758.15 701.187 762.596 706.523C767.043 711.858 771.489 716.527 775.936 720.529C780.827 724.531 786.607 726.532 793.277 726.532C801.28 726.532 809.728 722.53 818.621 714.526C827.514 706.523 836.851 694.295 846.633 677.843C856.86 660.947 867.976 639.827 879.981 614.482L889.986 639.16C877.091 672.508 863.307 699.853 848.634 721.196C834.406 742.094 819.066 757.656 802.614 767.883C786.607 777.665 768.821 782.556 749.257 782.556ZM944.676 581.134L933.338 561.792C951.568 512.882 971.577 476.644 993.365 453.078C1015.6 429.512 1040.5 417.729 1068.06 417.729C1087.18 417.729 1102.08 422.62 1112.75 432.402C1123.87 442.184 1129.42 454.856 1129.42 470.419C1129.42 482.869 1125.64 493.318 1118.09 501.766C1110.53 509.77 1100.75 513.771 1088.74 513.771C1080.29 513.771 1073.18 511.77 1067.4 507.769C1061.62 503.767 1056.5 499.098 1052.06 493.762C1047.61 488.427 1043.16 483.758 1038.72 479.756C1034.27 475.755 1028.94 473.754 1022.71 473.754C1011.59 473.754 999.812 482.202 987.362 499.098C974.912 515.994 960.684 543.34 944.676 581.134ZM1283.01 782.556C1242.1 782.556 1212.98 770.773 1195.64 747.207C1178.74 723.197 1176.07 690.738 1187.63 649.831L1275.67 335.026C1301.02 335.471 1323.91 334.359 1344.37 331.691C1365.27 329.023 1385.5 324.799 1405.06 319.019L1303.02 683.846C1297.68 701.632 1297.24 715.193 1301.68 724.531C1306.13 733.868 1315.24 738.537 1329.03 738.537C1340.59 738.537 1350.82 735.202 1359.71 728.532C1368.6 721.418 1377.05 710.525 1385.05 695.851L1396.39 674.509H1422.4L1403.06 710.524C1394.61 726.532 1384.39 739.871 1372.38 750.542C1360.82 761.213 1347.7 769.217 1333.03 774.553C1318.36 779.888 1301.68 782.556 1283.01 782.556ZM1164.96 453.078L1172.29 427.066H1471.09L1463.75 453.078H1164.96ZM1456.03 773.219L1571.42 361.037C1576.31 344.141 1577.86 331.247 1576.08 322.354C1574.75 313.016 1568.75 306.569 1558.08 303.012C1547.41 299.01 1530.51 296.787 1507.39 296.342L1515.39 270.331C1558.97 269.886 1597.87 267.441 1632.11 262.994C1666.79 258.548 1699.03 251.878 1728.82 242.985L1580.75 773.219H1456.03ZM1776.17 782.556C1750.83 782.556 1730.37 777.443 1714.81 767.216C1699.69 756.545 1689.91 741.427 1685.47 721.863C1681.02 702.299 1682.35 678.955 1689.47 651.832L1726.15 520.441C1731.49 501.321 1732.15 486.871 1728.15 477.088C1724.59 466.862 1716.59 461.748 1704.14 461.748C1694.8 461.748 1685.91 464.639 1677.46 470.419C1669.46 476.199 1662.34 484.647 1656.12 495.763L1652.12 485.092C1665.01 462.86 1680.35 446.186 1698.14 435.07C1716.37 423.509 1737.49 417.729 1761.5 417.729C1797.96 417.729 1823.3 430.179 1837.53 455.079C1851.76 479.979 1852.87 513.327 1840.87 555.123L1805.52 683.846C1800.63 701.187 1799.96 714.749 1803.52 724.531C1807.07 733.868 1814.86 738.537 1826.86 738.537C1836.64 738.537 1845.76 735.202 1854.21 728.532C1862.65 721.418 1870.66 710.747 1878.22 696.518L1890.22 674.509H1916.23L1900.89 702.521C1891.56 720.751 1880.66 735.869 1868.21 747.874C1855.76 759.435 1841.98 768.105 1826.86 773.886C1811.74 779.666 1794.85 782.556 1776.17 782.556Z" fill="#EDE8E0"/>
<path d="M2495.77 838.023C2490.24 850.679 2480.75 864.522 2467.3 879.55C2454.64 893.788 2438.03 906.049 2417.47 916.332C2396.9 925.824 2372.78 930.57 2345.09 930.57C2320.57 930.57 2296.44 925.824 2272.71 916.332C2249.78 906.049 2230.79 890.229 2215.76 868.872C2200.73 846.724 2193.22 818.248 2193.22 783.445C2193.22 734.403 2210.62 691.294 2245.42 654.117C2281.02 616.149 2335.2 586.092 2407.97 563.944C2434.08 556.034 2460.18 548.124 2486.28 540.214C2512.39 532.304 2538.49 524.394 2564.59 516.484C2591.48 508.574 2617.98 500.664 2644.09 492.754C2670.19 484.844 2696.29 476.934 2722.39 469.024C2744.54 461.905 2767.88 453.995 2792.4 445.295C2816.92 436.594 2837.88 424.729 2855.28 409.7C2872.68 393.88 2881.38 372.523 2881.38 345.629C2881.38 314.78 2869.91 291.051 2846.98 274.44C2824.04 257.829 2796.35 249.523 2763.92 249.523C2751.27 249.523 2740.59 251.105 2731.89 254.269C2754.83 262.97 2771.83 274.835 2782.91 289.864C2794.77 304.102 2800.7 320.713 2800.7 339.697C2800.7 360.263 2794.38 378.06 2781.72 393.089C2769.85 408.118 2754.43 419.587 2735.45 427.497C2716.46 434.616 2696.69 438.176 2676.12 438.176C2644.48 438.176 2618.38 429.475 2597.81 412.073C2578.04 394.671 2568.15 372.523 2568.15 345.629C2568.15 321.108 2575.67 300.543 2590.69 283.932C2606.51 267.321 2626.68 254.665 2651.21 245.964C2668.61 238.845 2686.8 234.495 2705.78 232.913C2725.56 230.54 2741.77 229.353 2754.43 229.353C2786.07 229.353 2814.55 234.89 2839.86 245.964C2865.96 256.247 2886.53 274.044 2901.55 299.356C2916.58 323.877 2924.1 358.285 2924.1 402.581C2924.1 453.995 2913.02 496.709 2890.88 530.722C2869.52 564.735 2837.88 593.21 2795.96 616.149C2754.83 639.088 2704.6 659.654 2645.27 677.847C2623.12 684.966 2600.98 692.085 2578.83 699.204C2556.68 705.532 2534.14 711.86 2511.2 718.188C2489.05 724.516 2466.9 731.239 2444.76 738.358C2422.61 744.686 2400.46 751.409 2378.31 758.528C2354.58 765.647 2335.2 773.557 2320.17 782.258C2305.14 790.959 2294.07 800.847 2286.95 811.92C2279.83 822.994 2276.27 835.255 2276.27 848.702C2276.27 870.85 2284.18 885.878 2300 893.788C2315.82 901.698 2332.43 905.653 2349.84 905.653C2372.78 905.653 2392.55 901.698 2409.16 893.788C2426.56 885.087 2440.8 874.804 2451.87 862.94C2462.95 851.075 2470.86 840.001 2475.6 829.718L2495.77 838.023ZM2372.38 400.208C2388.99 400.208 2402.83 395.066 2413.91 384.783C2425.77 374.501 2431.7 361.845 2431.7 346.816C2431.7 333.369 2425.77 322.295 2413.91 313.594C2402.83 304.893 2387.01 300.543 2366.45 300.543C2341.14 300.543 2316.22 307.266 2291.7 320.713C2267.97 334.16 2248.19 353.144 2232.37 377.665C2217.34 402.185 2209.83 431.057 2209.83 464.278C2209.83 469.815 2210.23 475.748 2211.02 482.076C2211.81 487.613 2212.6 493.545 2213.39 499.873C2227.63 497.5 2241.87 495.918 2256.1 495.127C2270.34 493.545 2281.02 492.754 2288.14 492.754C2316.61 492.754 2330.85 501.06 2330.85 517.67C2330.85 526.371 2326.9 532.699 2318.99 536.654C2311.08 540.609 2302.77 542.587 2294.07 542.587C2279.04 542.587 2263.62 539.423 2247.8 533.095C2232.77 525.976 2220.9 520.439 2212.2 516.484C2189.26 526.767 2168.3 544.564 2149.32 569.876C2131.13 595.188 2116.49 625.246 2105.42 660.049C2095.14 694.062 2089.99 730.448 2089.99 769.207C2089.99 818.248 2099.49 859.38 2118.47 892.602C2137.45 925.033 2165.53 949.553 2202.71 966.164C2239.89 982.775 2285.37 991.081 2339.16 991.081C2376.33 991.081 2413.12 987.126 2449.5 979.216C2486.68 970.515 2520.3 957.463 2550.35 940.062C2580.41 922.66 2604.54 900.116 2622.73 872.432C2641.71 843.956 2651.21 809.943 2651.21 770.393C2651.21 740.335 2644.09 711.464 2629.85 683.779C2615.61 656.095 2589.11 634.342 2550.35 618.522L2563.4 605.471C2599.79 619.709 2627.48 642.252 2646.46 673.101C2666.23 703.95 2676.12 739.149 2676.12 778.699C2676.12 815.084 2667.02 852.261 2648.83 890.229C2631.43 928.197 2604.14 963.396 2566.96 995.827C2530.58 1027.47 2483.91 1053.17 2426.96 1072.95C2370.01 1092.72 2302.38 1102.61 2224.07 1102.61C2152.09 1102.61 2086.44 1093.12 2027.11 1074.14C1968.58 1054.36 1921.91 1024.7 1887.1 985.148C1852.3 945.598 1834.9 895.766 1834.9 835.65C1834.9 781.863 1849.14 732.821 1877.61 688.525C1906.88 643.439 1948.41 605.471 2002.19 574.622C2056.77 542.982 2121.63 520.439 2196.78 506.992C2154.86 495.918 2124.4 479.703 2105.42 458.346C2087.23 436.989 2078.13 414.05 2078.13 389.529C2078.13 358.681 2089.2 333.369 2111.35 313.594C2134.29 293.028 2163.16 277.999 2197.97 268.507C2232.77 258.224 2269.15 253.083 2307.12 253.083C2360.91 253.083 2399.67 261.784 2423.4 279.186C2447.13 295.797 2458.99 317.153 2458.99 343.256C2458.99 370.15 2449.11 389.925 2429.33 402.581C2410.35 415.237 2391.76 421.565 2373.57 421.565L2372.38 400.208Z" fill="#EDE8E0"/>
</g>
<defs>
<filter id="filter0_d_1384_186" x="0" y="0" width="2930.1" height="1480.5" filterUnits="userSpaceOnUse" color-interpolation-filters="sRGB">
<feFlood flood-opacity="0" result="BackgroundImageFix"/>
<feColorMatrix in="SourceAlpha" type="matrix" values="0 0 0 0 0 0 0 0 0 0 0 0 0 0 0 0 0 0 127 0" result="hardAlpha"/>
<feOffset dx="6" dy="6"/>
<feComposite in2="hardAlpha" operator="out"/>
<feColorMatrix type="matrix" values="0 0 0 0 0.419608 0 0 0 0 0.356863 0 0 0 0 0.305882 0 0 0 1 0"/>
<feBlend mode="normal" in2="BackgroundImageFix" result="effect1_dropShadow_1384_186"/>
<feBlend mode="normal" in="SourceGraphic" in2="effect1_dropShadow_1384_186" result="shape"/>
</filter>
</defs>
</svg>
