<svg width="95" height="96" viewBox="0 0 95 96" fill="none" xmlns="http://www.w3.org/2000/svg">
<path d="M47.5 95.5C73.7 95.5 95 74.2 95 48C95 21.8 73.7 0.5 47.5 0.5C21.3 0.5 0 21.8 0 48C0 74.2 21.3 95.5 47.5 95.5ZM47.5 7.3C69.9 7.3 88.2 25.5 88.2 48C88.2 70.5 69.9 88.7 47.5 88.7C25.1 88.7 6.8 70.4 6.8 48C6.8 25.6 25.1 7.3 47.5 7.3Z" fill="white"/>
<path d="M45.0998 61.5C45.6998 62.1 46.5998 62.5 47.4998 62.5C48.3998 62.5 49.2998 62.1 49.8998 61.5L68.1998 43.2C69.4998 41.9 69.4998 39.7 68.1998 38.4C66.8998 37.1 64.6998 37.1 63.3998 38.4L47.4998 54.2L31.6998 38.4C30.9998 37.7 30.1998 37.4 29.2998 37.4C28.3998 37.4 27.4998 37.7 26.8998 38.4C25.5998 39.7 25.5998 41.9 26.8998 43.2L45.0998 61.5Z" fill="white"/>
</svg>
